# Blender 3.3.1
# www.blender.org
mtllib meshBilinear.mtl
o Plane
v -0.279030 0.000000 0.279030
v 0.279030 0.000000 0.279030
v -0.279030 0.000000 -0.279030
vn -0.0000 1.0000 -0.0000
vt 0.000000 0.000000
vt 1.000000 0.000000
vt 0.000000 1.000000
s 0
usemtl Material.002
f 1/1/1 2/2/1 3/3/1
o Plane.001
v 0.279030 0.000000 0.279030
v -0.279030 0.000000 -0.279030
v 0.279030 0.000000 -0.279030
vn -0.0000 1.0000 -0.0000
vt 1.000000 0.000000
vt 0.000000 1.000000
vt 1.000000 1.000000
s 0
usemtl Material.001
f 5/5/2 4/4/2 6/6/2
